<svg xmlns="http://www.w3.org/2000/svg" width="1920" height="1080" viewBox="0 0 1920 1080" fill="none">
  <defs>
    <linearGradient id="bg1" x1="160" y1="70" x2="1780" y2="1020" gradientUnits="userSpaceOnUse">
      <stop stop-color="#F9F0E6" />
      <stop offset="0.55" stop-color="#E5CFC2" />
      <stop offset="1" stop-color="#B6777F" />
    </linearGradient>
    <radialGradient id="vignette1" cx="0" cy="0" r="1" gradientUnits="userSpaceOnUse" gradientTransform="translate(980 520) rotate(90) scale(760 1180)">
      <stop stop-color="#FFF6EE" stop-opacity="0.08" />
      <stop offset="1" stop-color="#4B1F2A" stop-opacity="0.34" />
    </radialGradient>
    <linearGradient id="hair1" x1="0" y1="0" x2="0" y2="1">
      <stop offset="0" stop-color="#4C2922" />
      <stop offset="1" stop-color="#2A1714" />
    </linearGradient>
    <linearGradient id="cardigan1" x1="0" y1="0" x2="0" y2="1">
      <stop offset="0" stop-color="#7B3140" />
      <stop offset="1" stop-color="#4F1F2B" />
    </linearGradient>
  </defs>

  <rect width="1920" height="1080" fill="url(#bg1)" />
  <rect width="1920" height="1080" fill="url(#vignette1)" />

  <g opacity="0.18" fill="#F7E8DB">
    <circle cx="350" cy="860" r="280" />
    <circle cx="1570" cy="240" r="220" />
  </g>

  <g transform="translate(735 112)">
    <path d="M264 105C336 104 394 162 394 234V302H134V234C134 162 192 105 264 105Z" fill="url(#hair1)" />
    <circle cx="264" cy="168" r="70" fill="#F0D4C2" />
    <ellipse cx="236" cy="164" rx="6" ry="4" fill="#6B3C34" />
    <ellipse cx="292" cy="164" rx="6" ry="4" fill="#6B3C34" />
    <path d="M240 198C255 212 273 212 288 198" stroke="#B77772" stroke-width="4" stroke-linecap="round" />
    <path d="M150 328C150 246 216 180 298 180H334C416 180 482 246 482 328V818H150V328Z" fill="url(#cardigan1)" />
    <path d="M299 206L219 360L290 442L276 818H236L249 426L177 342L257 202L299 206Z" fill="#F9EBDD" fill-opacity="0.92" />
    <path d="M336 206L416 360L345 442L359 818H399L386 426L458 342L378 202L336 206Z" fill="#F9EBDD" fill-opacity="0.92" />
    <rect x="289" y="378" width="58" height="330" rx="29" fill="#9D5A66" fill-opacity="0.58" />
    <path d="M174 342L92 500L142 522L214 386L174 342Z" fill="#6C2A39" />
    <path d="M458 342L540 500L490 522L418 386L458 342Z" fill="#6C2A39" />
    <path d="M236 818H392L422 980H198L236 818Z" fill="#2F1D24" fill-opacity="0.72" />
  </g>

  <g opacity="0.14" stroke="#6A3742" stroke-width="2.2">
    <path d="M-40 230C260 120 520 320 840 220C1180 110 1480 250 1960 150" />
    <path d="M-60 760C260 640 520 860 840 760C1180 650 1480 790 1980 690" />
  </g>
</svg>
